<svg width="22" height="20" viewBox="0 0 22 20" fill="none" xmlns="http://www.w3.org/2000/svg">
<path fill-rule="evenodd" clip-rule="evenodd" d="M10.9987 0C5.33795 0 0.747299 4.59065 0.747299 10.2527C0.747299 14.7818 3.6847 18.6253 7.75887 19.9812C8.2715 20.0748 8.45861 19.7582 8.45861 19.4865C8.45861 19.243 8.44964 18.5984 8.44452 17.7423C5.59298 18.3613 4.99064 16.3684 4.99064 16.3684C4.52414 15.1843 3.85259 14.869 3.85259 14.869C2.92215 14.2333 3.92307 14.2461 3.92307 14.2461C4.95219 14.3192 5.49302 15.3022 5.49302 15.3022C6.40807 16.8695 7.89215 16.4171 8.47656 16.1544C8.57011 15.4918 8.83412 15.0394 9.1276 14.7844C6.8515 14.5255 4.4575 13.6463 4.4575 9.717C4.4575 8.59817 4.85735 7.68312 5.51224 6.96543C5.40843 6.70655 5.056 5.66334 5.61477 4.25231C5.61477 4.25231 6.476 3.97677 8.43426 5.30321C9.25192 5.07637 10.1285 4.96231 11 4.95846C11.8702 4.96231 12.7481 5.07637 13.567 5.30321C15.524 3.97677 16.384 4.25231 16.384 4.25231C16.9427 5.66334 16.5916 6.70655 16.4865 6.96543C17.1439 7.68184 17.5399 8.59689 17.5399 9.717C17.5399 13.6553 15.1434 14.523 12.8583 14.7767C13.2261 15.0933 13.5542 15.7187 13.5542 16.6747C13.5542 18.0448 13.5414 19.1508 13.5414 19.4878C13.5414 19.7621 13.7259 20.0812 14.2463 19.9812C18.3179 18.6215 21.2527 14.7818 21.2527 10.2527C21.2527 4.59065 16.6621 0 10.9987 0Z" fill="white"/>
</svg>
