<svg width="20" height="20" viewBox="0 0 20 20" fill="none" xmlns="http://www.w3.org/2000/svg">
<path d="M9.76964 0C8.25567 0 4.51091 0.159054 2.51884 2.07143C1.08456 3.42604 0.527093 5.49809 0.44741 7.96825C0.288045 11.8727 1.16393 14.3425 2.59822 15.6175C2.91695 15.8565 3.71439 16.4949 5.22836 16.973V18.9651C5.22836 18.9651 5.22805 19.7613 5.70614 19.9206C5.78583 19.9206 5.86613 20 5.94581 20C6.42391 20 6.82139 19.4419 7.37917 18.8841C7.85726 18.3264 8.25598 17.9286 8.49503 17.5302H9.6109H10.249C11.7629 17.5302 15.5077 17.3711 17.4998 15.4587C18.9341 14.0244 19.4918 11.9518 19.4918 9.32223C19.5715 8.92382 19.5712 8.44635 19.5712 7.96825C19.4915 5.02 18.6156 3.02825 17.4204 1.91269C16.9423 1.51428 14.8699 0 10.4077 0H9.76964ZM9.6109 1.51428H10.1681H10.249H10.3284C14.5515 1.51428 16.1452 2.86919 16.3045 3.02856C17.2607 3.82538 17.8185 5.57809 17.8982 7.88888V8.20792C17.9779 8.68602 17.9776 9.08318 17.9776 9.32223C17.8979 11.7127 17.4195 13.307 16.4633 14.3429C14.79 15.8568 11.2845 15.9365 10.3284 15.9365H9.76964H9.69027H9.6109H8.81407L7.53946 17.3714L6.74264 18.2476L6.58234 18.4857C6.42298 18.6451 6.18455 18.9648 6.02519 19.0444V18.8841V15.4587C4.43154 15.0603 3.79408 14.5022 3.63471 14.3429C2.51916 13.3867 1.8817 11.0759 2.04106 7.96825V7.17143C2.20043 5.25905 2.67914 3.98444 3.47597 3.10793C5.1493 1.59396 8.65471 1.51428 9.6109 1.51428ZM9.53153 3.26667C9.13311 3.26667 9.13311 3.82538 9.53153 3.82538C12.4798 3.82538 15.0299 5.81682 15.0299 9.5619C15.0299 9.96031 15.5871 9.96031 15.5871 9.5619C15.5871 5.49809 12.8782 3.18699 9.53153 3.26667V3.26667ZM6.3738 4.00436C6.20447 3.98444 6.02581 4.02334 5.86644 4.14287C5.06962 4.54128 4.27186 5.33935 4.51091 6.21586C4.51091 6.21586 4.67089 6.93207 5.5474 8.44604C6.0255 9.16318 6.4236 9.80126 6.82201 10.2794C7.22042 10.8371 7.85757 11.4743 8.49503 11.9524C9.76995 12.9883 11.7629 14.0244 12.6395 14.2635C13.4363 14.5025 14.3125 13.7048 14.7109 12.9079C14.8703 12.5892 14.79 12.1914 14.4712 11.9524C13.9931 11.4743 13.1972 10.9171 12.6395 10.5984C12.241 10.3593 11.7623 10.5181 11.603 10.7571L11.2045 11.2349C11.0452 11.474 10.6474 11.4746 10.6474 11.4746C8.01787 10.7575 7.29979 8.04762 7.29979 8.04762C7.29979 8.04762 7.30042 7.72952 7.53946 7.49047L8.01725 7.09206C8.2563 6.93269 8.41504 6.45397 8.17599 6.05556C8.01663 5.81651 7.77851 5.33904 7.53946 5.09999C7.30042 4.78126 6.82201 4.2238 6.82201 4.2238C6.70249 4.10427 6.54312 4.02428 6.3738 4.00436V4.00436ZM10.0887 4.86032C9.69027 4.78064 9.6109 5.41903 10.0093 5.41903C12.2404 5.5784 13.516 7.09237 13.4363 9.00475C13.3566 9.40316 13.9934 9.40316 13.9934 9.00475C14.0731 6.77364 12.6385 4.94 10.0887 4.86032ZM10.3284 6.3746C9.92994 6.29492 9.92994 6.93176 10.3284 6.93176C11.2845 6.93176 11.7617 7.48985 11.7617 8.44604C11.8414 8.84445 12.3998 8.84445 12.3998 8.44604C12.3201 7.17112 11.6033 6.3746 10.3284 6.3746Z" fill="white"/>
</svg>
