<svg width="20" height="20" viewBox="0 0 20 20" fill="none" xmlns="http://www.w3.org/2000/svg">
<path fill-rule="evenodd" clip-rule="evenodd" d="M17.0544 2.90667C15.1815 1.0337 12.6928 0 10.0421 0C4.57874 0 0.129616 4.44589 0.129616 9.90927C0.126375 11.6559 0.583278 13.3603 1.45172 14.8639L0.0453644 20L5.30136 18.6196C6.7466 19.4102 8.37978 19.825 10.0389 19.8283H10.0421C15.5055 19.8283 19.9514 15.3824 19.9546 9.91575C19.9546 7.26831 18.9242 4.77965 17.0544 2.90667ZM10.0421 18.1529H10.0389C8.56124 18.1529 7.10953 17.7544 5.84575 17.0058L5.54439 16.8276L2.42385 17.6442L3.25664 14.6047L3.06222 14.2936C2.2359 12.9812 1.80168 11.4647 1.80168 9.90927C1.80168 5.36941 5.49903 1.67531 10.0454 1.67531C12.2456 1.67531 14.313 2.53403 15.8684 4.08944C17.4238 5.64809 18.2793 7.71549 18.2793 9.91575C18.2793 14.4588 14.582 18.1529 10.0421 18.1529ZM14.5593 11.9831C14.313 11.86 13.0946 11.2605 12.8678 11.1795C12.641 11.0953 12.4757 11.0564 12.3104 11.3027C12.1452 11.5522 11.6721 12.1095 11.5262 12.2748C11.3837 12.4368 11.2378 12.4595 10.9916 12.3364C10.7421 12.2132 9.94491 11.9507 8.9987 11.105C8.26312 10.4504 7.76409 9.63707 7.62152 9.3908C7.4757 9.14128 7.60531 9.00843 7.72845 8.88529C7.84187 8.77511 7.97796 8.59689 8.1011 8.45107C8.22424 8.30849 8.26636 8.2048 8.35061 8.03953C8.43162 7.87427 8.3895 7.72845 8.32793 7.60531C8.26636 7.48218 7.77058 6.26053 7.56319 5.76474C7.36228 5.28192 7.15813 5.34997 7.00583 5.34025C6.86325 5.33377 6.69799 5.33377 6.53273 5.33377C6.36747 5.33377 6.09851 5.39533 5.87168 5.64485C5.64485 5.89112 5.00648 6.4906 5.00648 7.70901C5.00648 8.92741 5.89436 10.1069 6.0175 10.2722C6.14063 10.4342 7.76409 12.9358 10.2495 14.0084C10.8393 14.2644 11.2994 14.4167 11.6591 14.5301C12.2521 14.7181 12.7933 14.6922 13.221 14.6306C13.6973 14.5593 14.6857 14.0311 14.8931 13.4511C15.0972 12.8743 15.0972 12.3785 15.0356 12.2748C14.9741 12.1711 14.8088 12.1095 14.5593 11.9831Z" fill="white"/>
</svg>
